<svg width="28" height="29" viewBox="0 0 28 29" fill="none" xmlns="http://www.w3.org/2000/svg">
<g id="Google " clip-path="url(#clip0_38_1417)">
<path id="Vector" d="M27.7268 14.8225C27.7268 13.8709 27.6496 12.914 27.485 11.9778H14.2798V17.3689H21.8418C21.528 19.1077 20.5197 20.6458 19.0433 21.6232V25.1213H23.5548C26.2041 22.6829 27.7268 19.082 27.7268 14.8225Z" fill="#4285F4"/>
<path id="Vector_2" d="M14.2798 28.5009C18.0557 28.5009 21.2399 27.2611 23.56 25.1211L19.0485 21.6231C17.7933 22.477 16.1729 22.9606 14.2849 22.9606C10.6325 22.9606 7.53572 20.4965 6.42456 17.1836H1.76904V20.7897C4.14567 25.5172 8.98639 28.5009 14.2798 28.5009Z" fill="#34A853"/>
<path id="Vector_3" d="M6.41941 17.1837C5.83297 15.4449 5.83297 13.5621 6.41941 11.8234V8.21729H1.76904C-0.216632 12.1732 -0.216632 16.8339 1.76904 20.7898L6.41941 17.1837Z" fill="#FBBC04"/>
<path id="Vector_4" d="M14.2798 6.04127C16.2757 6.01041 18.2048 6.76146 19.6504 8.14012L23.6474 4.14305C21.1165 1.76642 17.7573 0.45979 14.2798 0.500943C8.98638 0.500943 4.14567 3.48459 1.76904 8.21728L6.41942 11.8234C7.52542 8.50536 10.6274 6.04127 14.2798 6.04127Z" fill="#EA4335"/>
</g>
<defs>
<clipPath id="clip0_38_1417">
<rect width="28" height="28" fill="white" transform="translate(0 0.5)"/>
</clipPath>
</defs>
</svg>
