<svg width="779" height="114" viewBox="0 0 779 114" fill="none" xmlns="http://www.w3.org/2000/svg">
<path d="M712.006 112.939C693.57 112.939 679.913 98.8728 679.913 80.3V46.8417H661.067V32.3658H679.913V12.564H696.847V32.3658H736.724V46.8417H696.847V80.3C696.847 90.4058 703.402 97.7803 712.279 97.7803C715.42 97.7803 729.623 97.234 736.724 96.4146V111.573C730.579 112.393 718.834 112.939 712.006 112.939Z" fill="#7385F3"/>
<path d="M574.073 111.574V32.3663H590.733V48.754C595.923 37.6923 608.76 30.0447 622.69 30.0447C643.311 30.0447 658.606 45.7496 658.606 66.7806V111.574H641.809V68.4193C641.809 54.7629 631.839 45.0668 617.363 45.0668C602.205 45.0668 590.87 54.7629 590.87 68.4193V111.574H574.073Z" fill="#7385F3"/>
<path d="M520.393 113.895C492.807 113.895 474.234 95.4591 474.234 71.2872C474.234 47.9346 493.899 30.0447 519.983 30.0447C548.525 30.0447 568.054 50.5294 565.732 77.4326H491.851C492.807 88.4943 504.688 99.5561 520.53 99.5561C533.64 99.5561 543.746 93.4107 547.979 85.8996L563.001 92.045C556.856 104.609 539.239 113.895 520.393 113.895ZM491.578 65.8246H548.798C547.569 53.6704 536.098 44.2474 520.256 44.2474C504.551 44.2474 492.807 53.6704 491.578 65.8246Z" fill="#7385F3"/>
<path d="M369.171 111.573V2.32153H429.806C451.52 2.32153 467.771 16.3877 467.771 35.2336C467.771 51.0751 457.119 63.5025 441.55 67.1897L472.414 111.573H452.476L422.704 68.2822H386.651V111.573H369.171ZM386.651 53.6698H430.489C441.687 53.6698 450.017 45.7491 450.017 34.8239C450.017 24.445 441.004 16.7974 429.123 16.7974H386.651V53.6698Z" fill="#7385F3"/>
<path d="M314.399 113.895C286.813 113.895 268.24 95.4591 268.24 71.2872C268.24 47.9346 287.906 30.0447 313.989 30.0447C342.531 30.0447 362.06 50.5294 359.739 77.4326H285.857C286.813 88.4943 298.694 99.5561 314.536 99.5561C327.646 99.5561 337.752 93.4107 341.985 85.8996L357.007 92.045C350.862 104.609 333.245 113.895 314.399 113.895ZM285.584 65.8246H342.805C341.575 53.6704 330.104 44.2474 314.263 44.2474C298.558 44.2474 286.813 53.6704 285.584 65.8246Z" fill="#7385F3"/>
<path d="M214.207 111.573V48.0707H195.361V33.5948H214.207C214.207 15.0221 227.863 0.819336 246.299 0.819336C254.084 0.819336 262.96 1.50216 272.52 2.32155V17.3437C262.004 16.3877 253.401 15.8414 246.846 15.8414C237.832 15.8414 231.141 23.6256 231.141 33.5948H272.52V48.0707H231.141V111.573H214.207Z" fill="#7385F3"/>
<path d="M139.699 113.212C119.624 113.212 106.377 103.926 106.377 89.4499C106.377 74.0181 120.716 69.3749 136.558 66.7801C156.087 63.9123 172.338 62.4101 176.162 60.4982V59.2691C176.162 50.3924 166.739 44.1104 152.399 44.1104C141.065 44.1104 130.549 49.9827 127.135 57.9034L112.523 53.8065C116.893 39.8769 133.554 30.3174 152.946 30.3174C176.708 30.3174 192.959 42.8813 192.959 59.9519V111.573H176.162V92.0446C170.972 103.243 160.047 113.212 139.699 113.212ZM123.311 89.4499C123.311 95.7318 130.276 99.8288 141.611 99.8288C159.228 99.8288 174.25 88.9036 176.571 73.4718C169.607 75.5203 156.087 77.2956 141.338 79.3441C131.642 80.8463 123.311 82.4851 123.311 89.4499Z" fill="#7385F3"/>
<path d="M52.3061 113.895C22.8082 113.895 0.821289 98.7362 0.821289 78.2515H18.5747C18.5747 89.8595 32.914 98.7362 52.7158 98.7362C71.8349 98.7362 84.2623 91.0886 84.2623 80.9828C84.2623 56.2646 2.86976 71.0136 2.86976 32.3658C2.86976 13.2468 24.3104 0 51.6233 0C79.3459 0 99.1478 14.4758 99.1478 34.1412H81.3944C81.3944 23.3525 69.923 15.2952 51.0771 15.2952C32.3677 15.2952 20.7597 22.6697 20.7597 32.3658C20.7597 55.5818 102.152 40.5597 102.152 80.8463C102.152 100.238 80.575 113.895 52.3061 113.895Z" fill="#7385F3"/>
<path d="M778.934 102.291C778.934 108.879 773.285 113.895 766.17 113.895C759.055 113.895 753.405 108.879 753.405 102.291C753.405 95.7034 759.055 90.6873 766.17 90.6873C773.285 90.6873 778.934 95.7034 778.934 102.291ZM776.86 102.291C776.86 96.8404 772.141 92.6268 766.17 92.6268C760.199 92.6268 755.479 96.8404 755.479 102.291C755.479 107.742 760.199 111.956 766.17 111.956C772.141 111.956 776.86 107.742 776.86 102.291ZM762.594 108.511H760.163V96.0378H768.887C771.247 96.0378 772.713 97.2082 772.713 99.2147C772.713 100.82 771.855 101.622 770.424 102.024V102.224C771.533 102.458 771.855 102.994 771.998 103.963L772.784 108.511H770.174L769.638 104.666C769.459 103.328 768.529 103.127 767.35 103.127H762.594V108.511ZM762.594 98.0108V101.087H767.957C769.459 101.087 770.174 100.485 770.174 99.5157C770.174 98.5124 769.531 98.0108 767.993 98.0108H762.594Z" fill="#7385F3"/>
</svg>
